/* XPM */
static const char *collect[] = {
/* columns rows colors chars-per-pixel */
"32 32 195 2 ",
"   c #290D05",
".  c #2B1006",
"X  c #341207",
"o  c #3C1A0A",
"O  c #3C2614",
"+  c #421C0A",
"@  c #4A1D08",
"#  c #5B1F08",
"$  c #49230E",
"%  c #54230B",
"&  c #5C290D",
"*  c #56260E",
"=  c #4C2D14",
"-  c #482714",
";  c #532B14",
":  c #592914",
">  c #4E331A",
",  c #533618",
"<  c #583619",
"1  c #55391C",
"2  c #593A1B",
"3  c #76310C",
"4  c #692F12",
"5  c #6B3C1A",
"6  c #663311",
"7  c #703A16",
"8  c #563C24",
"9  c #593E26",
"0  c #683C23",
"q  c #744019",
"w  c #5E4020",
"e  c #5D4128",
"r  c #644224",
"t  c #6C4624",
"y  c #624629",
"u  c #654B2D",
"i  c #6D4D2B",
"p  c #6A4829",
"a  c #754D26",
"s  c #73512C",
"d  c #7B552A",
"f  c #694F33",
"g  c #624C39",
"h  c #6D5333",
"j  c #6E5438",
"k  c #755632",
"l  c #7C5B34",
"z  c #765B3C",
"x  c #7A5D3C",
"c  c #7E6545",
"v  c #736657",
"b  c #8E4B1B",
"n  c #A1561D",
"m  c #814B21",
"M  c #865022",
"N  c #895423",
"B  c #825429",
"V  c #835B2E",
"C  c #955D27",
"Z  c #825E34",
"A  c #885E32",
"S  c #8E612E",
"D  c #98642C",
"F  c #846135",
"G  c #8C6334",
"H  c #83633C",
"J  c #89653B",
"K  c #9B6A36",
"L  c #966D3B",
"P  c #9D6E3C",
"I  c #966734",
"U  c #9C723B",
"Y  c #97713D",
"T  c #A76627",
"R  c #A16F38",
"E  c #AD7B3E",
"W  c #A77238",
"Q  c #B37836",
"!  c #C47118",
"~  c #836744",
"^  c #836846",
"/  c #8B6B41",
"(  c #8A6F4D",
")  c #916E41",
"_  c #8E724B",
"`  c #937247",
"'  c #997545",
"]  c #9E7947",
"[  c #94744B",
"{  c #9D7B4D",
"}  c #9E7648",
"|  c #8B7353",
" . c #9C7D53",
".. c #A37641",
"X. c #A37A4B",
"o. c #A67D44",
"O. c #B07D41",
"+. c #A27C54",
"@. c #85786A",
"#. c #C9872C",
"$. c #C68436",
"%. c #9D8258",
"&. c #A5814C",
"*. c #AB834E",
"=. c #B3854B",
"-. c #BB8B4B",
";. c #B3884A",
":. c #A48253",
">. c #A98654",
",. c #A3855B",
"<. c #AB8B5C",
"1. c #AA8858",
"2. c #B18E5C",
"3. c #B38E56",
"4. c #BB9255",
"5. c #BC965C",
"6. c #B09059",
"7. c #9F8966",
"8. c #A48A61",
"9. c #AA8C61",
"0. c #AD9167",
"q. c #AF936A",
"w. c #B49463",
"e. c #BE9962",
"r. c #B3966C",
"t. c #B69A6D",
"y. c #BB9B6B",
"u. c #B99763",
"i. c #BA9E73",
"p. c #B79C78",
"a. c #BDA379",
"s. c #C78C42",
"d. c #C7974D",
"f. c #D49B4A",
"g. c #C39A5A",
"h. c #CFA257",
"j. c #C49D64",
"k. c #C79E66",
"l. c #C9A369",
"z. c #C5A266",
"x. c #D5AC6C",
"c. c #D1A668",
"v. c #DCB66C",
"b. c #C0A376",
"n. c #CEAA73",
"m. c #CBAB7C",
"M. c #C5A87B",
"N. c #D1AB74",
"B. c #D9B67B",
"V. c #E3BA75",
"C. c #E3BC7D",
"Z. c #F3C57D",
"A. c #F5D679",
"S. c #BAA689",
"D. c #B8A485",
"F. c #C7AD83",
"G. c #CFB386",
"H. c #D3B382",
"J. c #DABA87",
"K. c #D2B68B",
"L. c #D6B989",
"P. c #C4B192",
"I. c #E2BF87",
"U. c #DDC598",
"Y. c #E2C28C",
"T. c #EBC587",
"R. c #F2CC8A",
"E. c #FACE86",
"W. c #FAD38F",
"Q. c #E6C693",
"!. c #EBCB95",
"~. c #E7CA99",
"^. c #F0CF99",
"/. c #EFD190",
"(. c #F3D39B",
"). c #FEDD9C",
"_. c #F9D597",
"`. c #FFF69A",
"'. c #EBD4A7",
"]. c #F6D7A2",
"[. c #FADAA0",
"{. c #F7DBA8",
"}. c #FDE3A5",
"|. c #FCE1AB",
" X c #FEEBAD",
".X c #FEF5A6",
"XX c #FCE5B2",
"oX c #FCEAB3",
"OX c #F3E2BA",
"+X c #FFF3B2",
"@X c #FEF6B9",
"#X c #EBE1CD",
"$X c #F7EBC6",
"%X c #FFF9DD",
"&X c None",
/* pixels */
"&X&X&X&X&X&X&X&X&X&X&X&X&X&X&X&X&X&X&X&X&X&X&X&X&X&X&X&X&X&X&X&X",
"&X&X&X&X&X&X&X&X&X&X&X&X&X&X&X&X&X&X&X&X&X&X&X&X&X&X&X&X&X&X&X&X",
"&X&X&X&X&X&X&X&X&X&X&X&X&X&X&X&X&X&X&X&X&X&X&X&X&X&X&X&X&X&X&X&X",
"&X&X&X&X&X&X&X&X&X&X&X&XU.b.9.+.,.<.w.,.&X&X&X&X&X&X&X&X&X&X&X&X",
"&X&X&X&X&X&X&X&X&X&X!.+.* : p J J B m X.<. .&X&X&X&X&X&X&X&X&X&X",
"&X&X&X&X&X&X&X&X&XH.* 0 m.H.m.b.y.2.>.=.D <. .@.&X&X&X&X&X&X&X&X",
"&X&X&X&X&X&X&X%Xw.# 1.~.Q.J.a.:.y.u.<.>.&.-.t. .v &X&X&X&X&X&X&X",
"&X&X&X&X&X&X&Xm.4 F.{.].Q.U.K.P 8.y.w.1.:.:.-.0.F.g &X&X&X&X&X&X",
"&X&X&X&X&X&X(.3 N.XX}._.Y.'.G.<.K i.t.9.:.,.{ -. .f &X&X&X&X&X&X",
"&X&X&X&X&XoXq P oXoX}.(.'.!.G.y.P  .i.w.,. .` Y 9.S.8 &X&X&X&X&X",
"&X&X&X&X&XY.A }.+X X[.Q.XXQ.K.y.,.R 0.t.9.%._ J k._ j &X&X&X&X&X",
"&X&X&X&X&Xg...+X+X}.(.OX].Y.G.y.<.} [ i.0.%._ H U [ ^ u &X&X&X&X",
"&X&X&X&X/.f.R. X X[.~.XX^.Y.G.y.<. .R ,.r.,._ H F [ p.L &X&X&X&X",
"&X&X&X&XC.E _.}.).!.$X(.!.J.m.w.1.{ ` :.q.8._ H l  .P.A.&X&X&X&X",
"&X&X&X&Xx.A W.)._.Y.B.R.Q.L.M.2.:.i % i ,.8._ x l ,.S..X&X&X&X&X",
"&X&X&X&Xj.A E.W.Q.n.n.g.I.m.y.{ r - y ~ r.7.( l l :.D.@X&X&X&X&X",
"&X&X&X&X5.B Z.T.B.N.E *.=.k.[ 4 & t Z H t c ^ k k ` a.+X&X&X&X&X",
"&X&X&X&Xz.V V.V.n.5.n.D T Q n b N G k M k | x s s / z.`.&X&X&X&X",
"&X&X&X&Xl.' v.x.z.u.-.k.#.! $.s.L r a p c ~ k i V l v.A.&X&X&X&X",
"&X&X&X&Xe.U.c.z.e.2.*.E 5.T l.` w r 5 h c z i i y.i d.f.&X&X&X&X",
"&X&X&X&X4.#X-.4.3.1.:.R U ] i 1 1 5 e z z h u s F k Q Q &X&X&X&X",
"&X&X&X&X&X6.{ =.*.&.{ ' I V 1 , < ; u z h u i X.p N C &X&X&X&X&X",
"&X&X&X&X&X1.g.o...] ] ` G V 1 > : 8 h h u j l z 8 m M &X&X&X&X&X",
"&X&X&X&X&X&X:.{ K L ) / / B 1 ; - y f u y x 8.u 6 7 &X&X&X&X&X&X",
"&X&X&X&X&X&XJ [ O.G F Z Z a = $ > y y y i 9.w * % & &X&X&X&X&X&X",
"&X&X&X&X&X&X&XF { h.S V V l + O 9 y u Z / 2 $ @ @ &X&X&X&X&X&X&X",
"&X&X&X&X&X&X&X&Xd J -.d.D G H u s V +.s , o o + &X&X&X&X&X&X&X&X",
"&X&X&X&X&X&X&X&X&X&Xs F o.;.4.&.G s 2 - X X &X&X&X&X&X&X&X&X&X&X",
"&X&X&X&X&X&X&X&X&X&X&X&X< < 2 < = o .   . &X&X&X&X&X&X&X&X&X&X&X",
"&X&X&X&X&X&X&X&X&X&X&X&X&X&X&X&X&X&X&X&X&X&X&X&X&X&X&X&X&X&X&X&X",
"&X&X&X&X&X&X&X&X&X&X&X&X&X&X&X&X&X&X&X&X&X&X&X&X&X&X&X&X&X&X&X&X",
"&X&X&X&X&X&X&X&X&X&X&X&X&X&X&X&X&X&X&X&X&X&X&X&X&X&X&X&X&X&X&X&X"
};
