/* XPM */
static const char *converted_image[] = {
/* columns rows colors chars-per-pixel */
"32 32 159 2 ",
"   c #221C0A",
".  c #3B2D15",
"X  c #5E510F",
"o  c #65570F",
"O  c #645711",
"+  c #716016",
"@  c #746719",
"#  c #655128",
"$  c #857312",
"%  c #8B7A18",
"&  c #937F13",
"*  c #8B7E20",
"=  c #978514",
"-  c #9C8A15",
";  c #A49013",
":  c #BFA610",
">  c #C0A710",
",  c #C3AB11",
"<  c #C8AF11",
"1  c #CCB212",
"2  c #CCB418",
"3  c #D1B713",
"4  c #D5BA13",
"5  c #D9BE14",
"6  c #D0B61A",
"7  c #D1BC19",
"8  c #C9B333",
"9  c #CBB639",
"0  c #D4BF38",
"q  c #DDC215",
"w  c #DBC71E",
"e  c #E1C615",
"r  c #E5CA16",
"t  c #EACE16",
"y  c #E2C71A",
"u  c #E4CA1B",
"i  c #EDD117",
"p  c #F0D417",
"a  c #F5DB19",
"s  c #F8DD1A",
"d  c #FBE41B",
"f  c #FEEA1E",
"g  c #D1C326",
"h  c #D9C233",
"j  c #DDC73D",
"k  c #E3CA25",
"l  c #E2CA28",
"z  c #E8CF28",
"x  c #E8D027",
"c  c #EDD82D",
"v  c #F3D821",
"b  c #E5CD30",
"n  c #E0CB3E",
"m  c #EED837",
"M  c #E6D03B",
"N  c #EAD33F",
"B  c #FEEE22",
"V  c #FAE62C",
"C  c #FDEF2F",
"Z  c #FFF324",
"A  c #FEF827",
"S  c #FEF728",
"D  c #FFFA2B",
"F  c #FCEE3B",
"G  c #FDF633",
"H  c #FFFB32",
"J  c #FBF23B",
"K  c #FFFB3B",
"L  c #A2915A",
"P  c #AB9960",
"I  c #CCBA51",
"U  c #DAC548",
"Y  c #DFCB48",
"T  c #DCC852",
"R  c #E7D143",
"E  c #ECD643",
"W  c #EEDA40",
"Q  c #F6E944",
"!  c #FCED42",
"~  c #FEF141",
"^  c #FFFC43",
"/  c #FFFC4C",
"(  c #F9E851",
")  c #FEFC53",
"_  c #FCF558",
"`  c #FFFE5C",
"'  c #EBD963",
"]  c #EADA78",
"[  c #FBEC67",
"{  c #FEFD63",
"}  c #FDFB6A",
"|  c #F7ED7A",
" . c #F8F276",
".. c #FEF973",
"X. c #D9CC82",
"o. c #DFD38D",
"O. c #DED597",
"+. c #ECDE83",
"@. c #E3D68A",
"#. c #E5D88C",
"$. c #E3D793",
"%. c #E3D99D",
"&. c #E9DF9E",
"*. c #EEE189",
"=. c #F6E985",
"-. c #FAF485",
";. c #FAF38C",
":. c #FDF98A",
">. c #ECE095",
",. c #EDE29F",
"<. c #F0E391",
"1. c #F0E69A",
"2. c #F8F59A",
"3. c #E2D9A4",
"4. c #E5DFB5",
"5. c #ECE3A8",
"6. c #F4E9A0",
"7. c #F0E7A9",
"8. c #FBF4A4",
"9. c #F7F4AA",
"0. c #F9F5AC",
"q. c #ECE4B6",
"w. c #EEE8B7",
"e. c #EDE7BC",
"r. c #F3EEB6",
"t. c #F2EAB8",
"y. c #F9F7B0",
"u. c #FAF8BA",
"i. c #E7E4CF",
"p. c #F0E9C0",
"a. c #F7F5C6",
"s. c #EEEBD8",
"d. c #F2EFDB",
"f. c #F5F2D5",
"g. c #F9F6D5",
"h. c #F5F1DD",
"j. c #F8F6DF",
"k. c #EEEDE3",
"l. c #EFEFEE",
"z. c #F0EFE5",
"x. c #F0EFE9",
"c. c #F9F6E3",
"v. c #FBF9E3",
"b. c #F4F3EC",
"n. c #F8F7EE",
"m. c #FBF9EC",
"M. c #F0F0F0",
"N. c #F1F1F1",
"B. c #F3F3F3",
"V. c #F4F4F4",
"C. c #F7F6F6",
"Z. c gray97",
"A. c #F8F6F5",
"S. c #F9F8F4",
"D. c #F8F8F8",
"F. c gray98",
"G. c #FBFBFB",
"H. c #FCFCFB",
"J. c #FEFEFE",
/* pixels */
"J.C.N.J.N.C.F.N.F.C.l.J.C.N.J.=.;.H.l.F.F.N.J.C.N.J.N.C.J.l.F.F.",
"C.C.C.C.C.C.C.C.C.C.C.C.C.C.f.F / g.C.C.C.C.C.C.C.C.C.C.C.C.C.C.",
"N.F.F.N.F.F.N.F.C.C.J.N.F.F.<.Z ^ 2.H.C.C.J.N.F.F.N.F.F.N.J.C.C.",
"J.C.N.J.N.C.F.N.F.C.l.J.C.k.m S ^ ) z.F.F.N.J.C.N.J.N.C.J.l.F.F.",
"C.C.C.C.C.C.C.C.C.C.C.C.C.,.a S / / 9.C.C.C.C.C.C.C.C.C.C.C.C.C.",
"N.F.F.N.F.F.C.F.C.C.F.N.b.x d S / ) ) b.C.F.N.F.F.N.F.F.N.F.C.C.",
"J.C.N.J.N.C.F.N.F.C.l.J.] p d A / ` ) :.C.l.J.C.N.J.N.C.J.l.F.F.",
"C.C.F.C.C.C.C.F.C.C.F.d.E a f A ^ ` ) } c.F.C.C.F.C.F.C.C.F.C.C.",
"C.C.F.C.F.C.C.F.C.C.F.,.p s f A K ) ` ) y.F.C.C.F.C.F.C.C.F.C.C.",
"J.C.N.J.N.C.F.N.F.C.l.z a d f A H / { ` ) b.J.C.N.J.N.C.J.l.F.F.",
"N.F.F.b.S.j.a.u.0.-.V d d d f S D ^ ` ` ) / 2.u.a.a.v.n.b.H.C.C.",
"f.8.-. ..._ G S A A Z f f f f S D K ) { } { ` ) / ) ..:.-.:.8.f.",
"M v d f B Z Z S S S B f d a f Z A D J ) ` } } } { ` ` ) / ^ K Q ",
"e.l e t a a d f f f f f 2 L 7 Z S w P g ^ / / ) / ^ ^ K G B c p.",
"C.7.y q e r i p a d d s % i.= f Z - i.* D H H D D S Z f a w 5.C.",
"J.N.w.u q q q r i p p p + O.$ d f % O.@ Z S Z B f d a r 3 4.A.F.",
"l.F.J.5.u q 5 5 q r t t X # $ a s $ # O d f d d a i q 6 3.J.C.N.",
"C.C.C.N.<.r q 5 4 q e r o . & p a = . o s d s a t q 1 o.N.C.C.C.",
"F.C.N.F.b.1.r q 5 5 q e -   < i p 2   ; a s a p e 1 O.b.F.N.C.F.",
"l.F.F.N.F.F.+.y q 5 q q q 3 r t t i q p a s a i 4 X.H.F.N.J.C.C.",
"F.C.C.F.C.C.b.N q 5 q q q e q e r t i p a s s a R b.C.C.F.C.C.F.",
"F.C.C.C.C.C.C.R q 5 q q q q q q q e r i a s d d ( C.C.C.F.C.C.C.",
"l.F.J.N.F.F.x.M q q q q q 5 4 4 4 q e t p s d f ! k.J.F.N.J.C.N.",
"J.C.N.F.C.C.c.M q q q 5 4 4 3 3 3 4 5 e t a d f ~ m.N.C.F.N.C.F.",
"C.C.C.C.C.C.f.b q 5 5 4 3 1 1 1 1 1 1 4 e i s f J g.C.C.C.C.C.C.",
"l.F.J.N.F.F.q.k q 4 4 1 < , , , < < < 1 4 e p d C r.J.F.N.J.C.N.",
"F.C.N.F.N.C.6.y 5 3 1 < , , > , 2 1 1 < < 4 r a B 8.N.C.F.N.F.F.",
"C.C.C.C.C.C.*.q 4 1 < , : , I %.&.T 3 1 1 < 4 i d ;.C.C.C.C.C.C.",
"l.F.J.N.F.F.] q 3 < , , 9 q.k.F.F.k.t.j 3 1 < q a | H.F.N.J.C.N.",
"J.C.N.J.N.b.' 4 < , 8 $.x.N.J.N.N.J.N.b.>.h 2 1 r [ b.C.J.l.F.F.",
"C.C.F.C.C.b.n 1 8 o.d.C.C.C.C.C.C.C.C.C.C.h.@.0 1 W n.C.C.C.C.C.",
"N.F.F.N.F.b.U @.s.N.F.N.F.F.N.F.F.N.F.C.C.F.b.h.#.Y n.F.N.F.C.C."
};
