/* XPM */
static const char *floor[] = {
/* columns rows colors chars-per-pixel */
"32 32 144 2 ",
"   c #1A171C",
".  c #1B181E",
"X  c #1E1B22",
"o  c #211E25",
"O  c #211F29",
"+  c #1F202A",
"@  c #222027",
"#  c #24222A",
"$  c #28262C",
"%  c #29282F",
"&  c #282630",
"*  c #272832",
"=  c #2A2A34",
"-  c #2D2E3B",
";  c #332F36",
":  c #2F313C",
">  c #31323D",
",  c #3C373A",
"<  c #3E393C",
"1  c #423E3F",
"2  c #45403F",
"3  c #2E3344",
"4  c #2F3548",
"5  c #323546",
"6  c #393745",
"7  c #313946",
"8  c #3E3C44",
"9  c #333949",
"0  c #383B4C",
"q  c #433E42",
"w  c #444144",
"e  c #494344",
"r  c #434148",
"t  c #4B474B",
"y  c #4C4A4C",
"u  c #524A4A",
"i  c #464954",
"p  c #4D4C52",
"a  c #4C4E5A",
"s  c #504E54",
"d  c #514F58",
"f  c #4B505D",
"g  c #555356",
"h  c #5E5657",
"j  c #55545B",
"k  c #58555B",
"l  c #5E585A",
"z  c #615C5D",
"x  c #575763",
"c  c #575863",
"v  c #5C5D64",
"b  c #5F6066",
"n  c #5F606A",
"m  c #636061",
"M  c #6F6866",
"N  c #61626A",
"B  c #6F6C6E",
"V  c #716D6F",
"C  c #6B6A75",
"Z  c #6F6D78",
"A  c #716C72",
"S  c #717075",
"D  c #7C7676",
"F  c #7B7876",
"G  c #76767B",
"H  c #7A7679",
"J  c #7B797B",
"K  c #817C7A",
"L  c #7A7A83",
"P  c #7D7E88",
"I  c #7F828A",
"U  c #858386",
"Y  c #898586",
"T  c #81828A",
"R  c #8A878A",
"E  c #8C8A8B",
"W  c #948D8B",
"Q  c #97918E",
"!  c #888D97",
"~  c #969090",
"^  c #9A9594",
"/  c #959599",
"(  c #9A9699",
")  c #9C9A9B",
"_  c #A9A39C",
"`  c #969AA0",
"'  c #9E9EA0",
"]  c #A09FA3",
"[  c #9FA1A8",
"{  c #A0A3A6",
"}  c #ADA5A1",
"|  c #ADA9A6",
" . c #A2A4A9",
".. c #AEABAC",
"X. c #B0AAA5",
"o. c #BCB3AD",
"O. c #A7ACB2",
"+. c #A9ACB3",
"@. c #AFB0B2",
"#. c #B3B3B4",
"$. c #BDB6B2",
"%. c #BDB9B5",
"&. c #B5B6B9",
"*. c #B6B8BF",
"=. c #BABBB9",
"-. c #C1B7B4",
";. c #C1B9B5",
":. c #C4BCBB",
">. c #C5C0BF",
",. c #BDBFC5",
"<. c #BDC0C6",
"1. c #BEC3CB",
"2. c #C6C4C3",
"3. c #C7C5C4",
"4. c #C9C6C7",
"5. c #C8C8C6",
"6. c #CAC7C8",
"7. c #C6C9C9",
"8. c #CACACA",
"9. c #CDCBCB",
"0. c #CECCCA",
"q. c gray81",
"w. c #D1CECE",
"e. c #D1CFCF",
"r. c #D3D0CD",
"t. c #D0CFD0",
"y. c #CAD1D6",
"u. c #CDD1D7",
"i. c #CED2DA",
"p. c #D1D1D1",
"a. c #D2D2D3",
"s. c #D3D5D7",
"d. c #D5D6D7",
"f. c #D0D3D9",
"g. c #D0D4DB",
"h. c #D5D6D9",
"j. c #D5D7DA",
"k. c #D3D6DE",
"l. c #D4D7DE",
"z. c #D7D9DD",
"x. c #D9DADE",
"c. c #D5D6E1",
"v. c #D5DAE0",
"b. c #D9DCE1",
/* pixels */
"= y.y.i.i.s = % = j 7.7.8.2.# # $ $ =.=.=.=.t o @ @ q | | | | . ",
"= u.i.u.i.j = = = v q.q.q.5.# # # @ 4.4.2.2.t X X X q %.%.%.$.  ",
"= i.g.f.f.d = = = v q.q.8.8.# # # # 5.4.3.2.t X X X q :.%.$.$.  ",
"- k.g.g.g.j - - = v p.q.q.0.# # # @ 5.4.3.2.p X X X q :.;.$.$.. ",
"- l.k.k.g.j - - - v p.q.q.0.# # # # 8.5.4.3.s o X X 1 :.;.-.%.. ",
"> k.k.f.i.j : - - v q.q.q.8.$ $ $ # 8.4.4.3.g o o o q -.$.$.$.. ",
" .j a a p /  . .{ U s p p y ' ) ) ) p y y p H E E Y F y y e 2 K ",
"g.- - - - +.z.d.h.) = $ $ $ p.t.q.q.@ # @ @ E 2.3.2.^ X X .   $.",
"l.: - - - O.z.h.s.) = % % % p.e.e.q.# # # @ E 4.2.2.Q X X . . %.",
"z.: - - - +.z.h.d.) = $ % % p.p.e.e.@ # # o E 4.4.2.~ X X . . -.",
"l.: : : : +.z.h.p.) = % % % t.q.e.e.# # o o E 4.3.>.~ X X . . ;.",
"h.: > : : +.z.z.p.) = % $ % t.p.e.e.@ @ # @ Y 3.2.>.W X X X . ;.",
"[ n N N N /  . .] R j k k k ) ) ) ) p t t t J ) ) ~ D w w w 1 W ",
"5 b.v.x.x.k - - = v p.p.p.r.$ $ # # 9.9.8.8.g o X X e :.;.;.%.  ",
"5 b.b.x.x.j - - = v p.p.p.e.$ $ # # e.9.8.8.k O X o e :.:.;.%.. ",
"5 b.b.b.x.x - - = v p.p.p.e.$ $ # # q.9.8.8.k o o o w :.:.;.%.. ",
"9 b.b.b.x.x - - = v p.p.p.e.$ $ # # 9.8.8.8.k O o X w :.:.;.$.. ",
"9 b.x.b.x.c - - - v p.p.p.r.# $ # # 9.9.8.8.k # o X q :.;.$.$.. ",
"9 b.b.b.x.v - - - b p.p.p.e.# $ # # 9.9.8.8.k # o o q ;.$.$.o.. ",
"*.f a i i ` &.&.#.R r r q 8 ........r r r r H ( ^ ^ K , < < < W ",
"b.3 5 5 3 +.h.h.d./ = = = & e.e.q.q.# # # # R 2.2.:.^ X X X X $.",
"b.5 5 3 3 +.s.d.p./ = * = = q.q.9.9.# # # @ E 2.>.:.^ X X X . $.",
"b.7 5 5 3 O.s.d.p./ = = * & q.q.9.9.# # # @ E 3.>.:.^ X X . X o.",
"v.9 5 3 3 +.d.d.p./ = = * & q.9.9.8.# # # @ R 3.>.:.^ X X X X o.",
"v.9 4 3 3 O.s.p.p./ = * * $ 9.9.9.5.# # # # Y 2.2.:.) X X X X o.",
"! C Z G L T I P L S B A B V G G J J m z l h H E U U D t u u u M ",
"3 z.z.h.h.x - - - v p.p.e.9.# # # # 4.4.4.4.k X X X q -.o.o.o.. ",
"3 v.z.h.h.x - - - v p.p.p.9.# # + O 8.4.4.3.k X X X q ;.$.o.o.. ",
"3 c.v.z.z.c - - - v p.p.q.9.# O # O 6.4.3.2.g X X O q ;.$.o.o.. ",
"3 c.v.z.h.c - - - v p.p.q.0.O # # @ 4.4.3.2.g X X o q %.o.o.o.X ",
"3 c.l.z.x.c - - - v p.q.q.0.O # O # 8.4.2.2.k X X X q $.o.o.o.X ",
"0 1.1.<.,.c 6 6 8 v &.#.@.#.; ; ; ; #.#.#.#.g # # $ w X.} } _ # "
};
