/* XPM */
static const char *player[] = {
/* columns rows colors chars-per-pixel */
"32 32 204 2 ",
"   c #352521",
".  c #3F2D28",
"X  c #5C0201",
"o  c #5C1915",
"O  c #660000",
"+  c #6D0102",
"@  c #760706",
"#  c #7B0202",
"$  c #67110E",
"%  c #4B352F",
"&  c #4E3831",
"*  c #7C2A27",
"=  c #693F35",
"-  c #7A3D32",
";  c #77493E",
":  c #7B5548",
">  c #7F6853",
",  c #850001",
"<  c #8C0001",
"1  c #920001",
"2  c #9B0001",
"3  c #8A100D",
"4  c #93120F",
"5  c #8E1B16",
"6  c #981819",
"7  c #A40003",
"8  c #AB0003",
"9  c #B30004",
"0  c #BC0005",
"q  c #B70509",
"w  c #B70E12",
"e  c #B41317",
"r  c #8B271F",
"t  c #94231D",
"y  c #8C2E29",
"u  c #9E382E",
"i  c #A72827",
"p  c #B8282A",
"a  c #BC2D31",
"s  c #A63A35",
"d  c #C30005",
"f  c #CB0006",
"g  c #D40007",
"h  c #DC0007",
"j  c #D3050C",
"k  c #C30D12",
"l  c #DC0A10",
"z  c #D3161C",
"x  c #E00007",
"c  c #E30008",
"v  c #EC0008",
"b  c #F5010A",
"n  c #F8000A",
"m  c #E40E15",
"M  c #F70B14",
"N  c #F80F18",
"B  c #E4161C",
"V  c #F61019",
"C  c #E31F25",
"Z  c #F71A23",
"A  c #C12326",
"S  c #D0252A",
"D  c #C83034",
"F  c #DA343A",
"G  c #E1272D",
"H  c #E12B31",
"J  c #F72C33",
"K  c #EE3238",
"L  c #F3363D",
"P  c #A8493A",
"I  c #EB3D42",
"U  c #F63A41",
"Y  c #9A5B5B",
"T  c #A64545",
"R  c #B54546",
"E  c #AB5050",
"W  c #BA5758",
"Q  c #8B6B5A",
"!  c #8D7C5F",
"~  c #9B775F",
"^  c #B5654F",
"/  c #A56853",
"(  c #977661",
")  c #9F7B7B",
"_  c #B46F71",
"`  c #C35356",
"'  c #D45154",
"]  c #EC585C",
"[  c #F55055",
"{  c #E85C60",
"}  c #F35E62",
"|  c #CE666A",
" . c #C9696A",
".. c #D76467",
"X. c #C37D7C",
"o. c #E4686C",
"O. c #F6666A",
"+. c #E96E72",
"@. c #F77579",
"#. c #9A8A7F",
"$. c #A8856A",
"%. c #AB8B6E",
"&. c #B78366",
"*. c #AD8D72",
"=. c #B18F72",
"-. c #AC9676",
";. c #AF9078",
":. c #B49376",
">. c #B59979",
",. c #BD9B7D",
"<. c #BBA57F",
"1. c #C39A7A",
"2. c #F37D80",
"3. c #BB8283",
"4. c #BF8D8D",
"5. c #A4968F",
"6. c #B39986",
"7. c #B89E89",
"8. c #BD9C9C",
"9. c #BBA785",
"0. c #B3A69E",
"q. c #A4A2A2",
"w. c #A8A7A8",
"e. c #AAA8A9",
"r. c #B0AFAF",
"t. c #B1AFB0",
"y. c #B8B6B7",
"u. c #BCBABB",
"i. c #C68383",
"p. c #C58D8D",
"a. c #C49999",
"s. c #EB878A",
"d. c #F48286",
"f. c #E08E91",
"g. c #E79D9F",
"h. c #C5A483",
"j. c #CAA986",
"k. c #CFAD8A",
"l. c #DAAD87",
"z. c #D1AE8A",
"x. c #C9B48B",
"c. c #D5B28C",
"v. c #D9B58D",
"b. c #C0A794",
"n. c #CBB49F",
"m. c #DBB790",
"M. c #DDB992",
"N. c #E1BD94",
"B. c #F59EA1",
"V. c #C3ABAB",
"C. c #D4A4A4",
"Z. c #D8A9AA",
"A. c #CAB7A8",
"S. c #C1BFBF",
"D. c #CABABA",
"F. c #D4BFBF",
"G. c #E3A0A0",
"H. c #EDACAE",
"J. c #F4A1A3",
"K. c #F8A2A4",
"L. c #F5AAAD",
"P. c #ECB6B7",
"I. c #DDC697",
"U. c #E5C297",
"Y. c #E3C29C",
"T. c #EAC69A",
"R. c #EECB9D",
"E. c #F3D3A2",
"W. c #F5DAA6",
"Q. c #F7DDA9",
"!. c #F8DEA9",
"~. c #EAD2B5",
"^. c #FAE3AC",
"/. c #FDE9B1",
"(. c #C6C6C6",
"). c #C9C7C6",
"_. c #CDCCCC",
"`. c #D6C9C4",
"'. c #D0CFCF",
"]. c #D4D3D3",
"[. c #DCDCDB",
"{. c #EAC7C7",
"}. c #E4CECE",
"|. c #F0C4C5",
" X c #F7CECE",
".X c #EAD9C4",
"XX c #ECD5D5",
"oX c #E7D9D7",
"OX c #E0DFDF",
"+X c #F6D5D5",
"@X c #EEE7DE",
"#X c #E4E3E4",
"$X c #ECE7E5",
"%X c #EFEBE7",
"&X c #ECECEC",
"*X c #F2E6E6",
"=X c #F2EDEC",
"-X c #EFF0F0",
";X c #F3F3F3",
":X c #F6F7F7",
">X c #FAF6F6",
",X c #F7F8F8",
"<X c #F8F9F9",
"1X c #FBFCFC",
/* pixels */
"1X;X;X1X;X;X<X-X<X=X}.J.] K K L U L U O.L.XX>X;X;X1X;X;X1X&X:X<X",
";X:X:X;X:X:X:X:X|.o.C B +.H.XX$X*X+XP.@.Z J @.+X:X;X:X:X;X,X:X:X",
";X:X<X;X,X:X=Xs.l x B {.$X&X&X;X;X:X:X:X+XZ n N K.=X<X:X;X<X:X:X",
"1X;X;X<X;X*Xo.j h G }.$X&X;X;X;X:X:X,X<X<X*XJ n M @.*X;X<X&X:X,X",
";X:X<X;X=X' j g l f.#X$X&X;X;X:X:X,X<X<X<X<XK.M n n [ =X;X<X:X;X",
";X:X:X=X..f g g F [.#X$X&X;X;X:X,X<X<X<X<X<X<XU n n n } =X:X:X:X",
"<X:X;XG.k f f g ..[.#X$X&X;X;X:X,X<X<X<X<X<X<X2.n n n V K.;X:X,X",
"&X:X:X` d f f g Z.[.#X$X$X&X;X:X,X<X<X<X<X<X<X Xn n n b } <X:X;X",
"<X;X_. .0 d f f `.[.#X#X$X&X;X;X:X,X<X<X<X<X<X=Xb b b b d.;X:X:X",
":X#XS.i.0 d f f Z.[.OX#X$X$X&X;X;X:X,X<X<X<X<X Xb b b b B.;X;X:X",
"&X).S.p.q 0 d f | ].[.#X#X$X$X&X;X;X:X:X,X<X<X2.v v v v L.:X&X;X",
";Xu.u.p.q 0 0 d D `.[.OX#X#X$X&X&X&X;X;X:X:X=XI v v v v L.:X&X:X",
"[.r.u.3.9 9 0 0 k p.'.].[.#X#X$X$X&X&X&X;X;XH.m c c c v J.:X&X;X",
"(.e.y._ 8 9 9 0 0 A D._.].[.[.#X#X$X$X&X&XoXH h h x x x s.:X;X$X",
"y.w.t.E 7 8 8 9 9 0 a a.).].].[.[.[.#X#XP.F g g h h h h { :X;X#X",
"e.q.w.6 2 7 7 8 8 8 9 e W V.)._._.].F.| z f f f g g g h B ;X;X#X",
"q.q.) 1 1 2 2 2 7 7 7 8 8 8 i R R p 9 0 0 d d d f f f g g g.&X[.",
"w.5.t < < < < 1 1 1 2 2 2 2 2 2 7 7 7 8 8 9 9 0 0 d d d f S }.[.",
"r.Y < < , , , , , , < < 1 1 1 1 1 1 1 2 2 7 7 8 9 9 0 0 0 d | ].",
"8.4 < < , , , , , , , , < 1 < 1 1 1 1 1 1 1 1 2 7 7 8 8 9 9 w C.",
"C.1 1 < , , , , , , , , 3 t u P P s i 4 < < 1 1 1 1 2 7 7 8 8 Z.",
"}.i 1 < , , , # # @ y $.,.k.c.v.N.U.T.N.l.P 4 < < < < 1 1 2 i oX",
";XX.1 < , # + $ - ~ :.:.#.h.m.N.T.R.v.5.v.T.v.^ 5 , , < < 1 i.;X",
":X$Xs , # O o : ( *.,.*.0.-.W.!.^.^.>.0.x.!.E.U.1.r # , < s =X:X",
";X:X:XT @ X = Q $.h.N.*.% >.^./././.-.& 9././.^.T./ + @ T :X:X;X",
"<X:X;X*X4.* ; ( ,.c.U.%.  <.^.^././.<.. 9./././.!.&.* 4.=X;X:X,X",
";X:X:X;X:X$X6.$.,.z.M.:.  U.W.^.^.^.I.. x./././.!.~.=X:X;X<X:X:X",
";X:X,X;X,X:XA.$.:.h.z.z.> T.E.W.W.!.!.! W.^.^.Q.E..X<X:X;X<X:X:X",
"1X;X;X<X;X;XoX;.*.>.1.j.z.M.U.T.R.E.E.E.W.W.E.R.Y.@X;X;X<X&X:X<X",
";X:X<X;X,X:X=Xb.*.=.=.:.,.h.j.c.v.M.N.N.U.N.M.z.n.&X<X:X;X<X:X;X",
";X:X:X;X:X:X:X=XA.6.*.*.*.=.:.:.>.,.,.,.,.:.9.A.=X;X:X:X;X:X:X:X",
"1X;X;X<X;X:X<X;X:X$X`.A.7.*.*.%.%.*.*.7.A.`.%X;X;X<X;X;X<X&X:X,X"
};
